<svg xmlns="http://www.w3.org/2000/svg" class="thumb" viewBox="0 0 1127 451" width="1127" height="451" xmlns:xlink="http://www.w3.org/1999/xlink" xmlns:inkscape="http://www.inkscape.org/namespaces/inkscape" xmlns:sodipodi="http://sodipodi.sourceforge.net/DTD/sodipodi-0.dtd" xmlns:ns1="http://www.inkscape.org/namespaces/inkscape" xmlns:sketch="http://www.bohemiancoding.com/sketch/ns"><defs/><g><g transform="matrix(1.7415, 0, 0, 1.7415, 370.136, 89.3428)"><svg viewBox="16.1131 81.0113 239.274 66.3387" width="239.274" height="66.3387"><defs><linearGradient id="linearGradientSk2znz9pw41l" x1="0" y1="0.5" x2="1" y2="0.5"><stop stop-color="rgb(41, 48, 54)" offset="0%"/><stop stop-color="rgb(41, 48, 54)" offset="100%"/></linearGradient></defs><g><path fill="url(#linearGradientSk2znz9pw41l)" d="M 248.055 125.184 c 0 0 1.666 -10.001 1.5 -12.668 c -0.167 -2.666 -23.334 -4.332 -39 -5.666 c -8.608 -0.732 -15.601 -0.66 -20.159 -0.445 c 0.056 0.03 0.115 0.064 0.157 0.086 c 0.085 0.015 0.148 0.033 0.168 0.059 c 0.025 0.033 -0.035 0.011 -0.168 -0.059 c -0.266 -0.047 -0.828 -0.047 -1.592 -0.011 c -2.835 0.169 -4.406 0.37 -4.406 0.37 l -0.045 -0.023 c -4.202 0.399 -8.988 0.973 -8.988 0.973 l -22.926 -15.75 l 0.566 -1.357 l -2.607 -1.342 c 0 0 -5.667 -3.5 -23.667 -3.334 c -18 0.168 -31.333 4.5 -31.333 4.5 s -46.167 15.668 -46.667 16 c -0.5 0.334 -25 2.668 -25 2.668 s -8 19.999 3.167 27.832 l 24.166 2.5 l 2.291 0.154 c -0.24 -1.191 -0.369 -2.422 -0.369 -3.684 c 0 -10.218 8.283 -18.5 18.5 -18.5 c 10.218 0 18.5 8.282 18.5 18.5 c 0 2.127 -0.377 4.162 -1.038 6.064 l 4.45 0.299 l 98.833 -0.85 c 0 0 2.089 -0.082 5.36 -0.221 c -0.501 -1.678 -0.779 -3.453 -0.779 -5.293 c 0 -10.218 8.283 -18.5 18.5 -18.5 c 10.218 0 18.5 8.282 18.5 18.5 c 0 1.129 -0.117 2.23 -0.311 3.305 c 0.381 -0.037 0.741 -0.072 1.062 -0.107 c 9 -1 12.5 -3.834 12.5 -3.834 v -5.5 l 3.167 -0.334 v -4.174 L 248.055 125.184 Z M 71.652 105.695 v -1.332 l 3.931 -1.188 l 0.403 2.52 H 71.652 Z M 79.73 105.977 l -0.646 -3.859 l 2.899 -0.876 l 0.684 4.735 H 79.73 Z M 144.555 91.516 l 21.166 16.5 h -57.333 l -4.167 -13.333 C 104.221 94.683 124.721 89.183 144.555 91.516 Z M 94.819 97.363 l 3 9 l -4.464 -0.114 l -1.95 -7.854 L 94.819 97.363 Z M 85.153 100.283 l 3.283 -0.992 l 1.382 6.867 l -3.338 -0.084 L 85.153 100.283 Z M 160.471 134.148 l -21.417 0.275 c -3.569 0.037 -7.139 0.105 -10.708 0.107 l -10.708 0.043 l -21.417 0.088 l -0.948 0.004 l -0.039 -0.997 c -0.021 -0.548 -0.025 -1.097 -0.06 -1.643 c -0.062 -0.542 -0.081 -1.092 -0.175 -1.628 c -0.076 -0.54 -0.159 -1.078 -0.287 -1.607 c -0.099 -0.535 -0.27 -1.05 -0.41 -1.574 c -0.179 -0.51 -0.344 -1.026 -0.563 -1.52 c -0.2 -0.5 -0.44 -0.984 -0.697 -1.454 c -0.252 -0.474 -0.538 -0.927 -0.842 -1.36 c -0.152 -0.217 -0.312 -0.429 -0.477 -0.629 c -0.156 -0.194 -0.352 -0.409 -0.483 -0.54 l -1.656 -1.644 l 2.292 -0.02 l 19.709 -0.168 l 9.855 -0.072 l 9.855 -0.002 l 9.855 -0.004 c 3.285 0.004 6.57 -0.014 9.856 0.022 c 6.571 0.06 13.142 0.072 19.714 0.188 c -6.567 0.281 -13.136 0.46 -19.703 0.685 c -3.283 0.119 -6.568 0.185 -9.853 0.271 l -9.853 0.244 l -9.853 0.246 l -9.854 0.176 l -17.723 0.295 c 0.311 0.445 0.602 0.9 0.857 1.372 c 0.295 0.528 0.567 1.07 0.797 1.627 c 0.249 0.55 0.438 1.121 0.641 1.688 c 0.163 0.576 0.353 1.148 0.468 1.736 c 0.146 0.582 0.241 1.172 0.33 1.763 c 0.107 0.589 0.119 1.187 0.183 1.779 c 0.015 0.265 0.016 0.528 0.021 0.793 l 20.457 0.084 l 10.708 0.044 c 3.569 0 7.139 0.07 10.708 0.107 l 21.417 0.275 c 7.139 0.158 14.277 0.255 21.416 0.473 C 174.748 133.893 167.609 133.988 160.471 134.148 Z"/></g></svg></g><g transform="matrix(1.7415, 0, 0, 1.7415, 431.09, 147.684)"><svg viewBox="50.555 115.141 41.667 41.666" width="41.667" height="41.666"><defs><linearGradient id="linearGradientSk2znz9pw41r" x1="0" y1="0.5" x2="1" y2="0.5"><stop stop-color="rgb(24, 119, 140)" offset="0%"/><stop stop-color="rgb(24, 119, 140)" offset="100%"/></linearGradient></defs><g><path fill="url(#linearGradientSk2znz9pw41r)" d="M 71.389 120.141 c -8.745 0 -15.834 7.089 -15.834 15.834 c 0 8.744 7.089 15.832 15.834 15.832 c 8.744 0 15.833 -7.088 15.833 -15.832 C 87.222 127.229 80.133 120.141 71.389 120.141 Z M 71.389 142.633 c -3.683 0 -6.668 -2.984 -6.668 -6.666 c 0 -3.683 2.985 -6.668 6.668 -6.668 c 3.682 0 6.666 2.985 6.666 6.668 C 78.055 139.648 75.07 142.633 71.389 142.633 Z"/></g></svg></g><g transform="matrix(1.7415, 0, 0, 1.7415, 681.869, 147.684)"><svg viewBox="194.389 115.141 41.666 41.666" width="41.666" height="41.666"><defs><linearGradient id="linearGradientSk2znz9pw41x" x1="0" y1="0.5" x2="1" y2="0.5"><stop stop-color="rgb(24, 119, 140)" offset="0%"/><stop stop-color="rgb(24, 119, 140)" offset="100%"/></linearGradient></defs><g><path fill="url(#linearGradientSk2znz9pw41x)" d="M 215.222 120.141 c -8.745 0 -15.833 7.089 -15.833 15.834 c 0 8.744 7.088 15.832 15.833 15.832 s 15.833 -7.088 15.833 -15.832 C 231.055 127.229 223.967 120.141 215.222 120.141 Z M 215.223 142.641 c -3.683 0 -6.668 -2.984 -6.668 -6.666 c 0 -3.683 2.985 -6.668 6.668 -6.668 c 3.682 0 6.666 2.985 6.666 6.668 C 221.889 139.656 218.904 142.641 215.223 142.641 Z"/></g></svg></g><g transform="matrix(0.546, -0.2663, 0.2663, 0.546, 368.279, 102.369)"><svg viewBox="159.153 175.722 120.15 119.09" width="120.15" height="119.09"><defs><linearGradient id="linearGradientSk2znz9pw423" x1="0" y1="0.5" x2="1" y2="0.5"><stop stop-color="rgb(24, 119, 140)" offset="0%"/><stop stop-color="rgb(24, 119, 140)" offset="100%"/></linearGradient></defs><g><path clip-rule="evenodd" fill="url(#linearGradientSk2znz9pw423)" fill-rule="evenodd" d="M 233.891 219.266 c 4.727 -10.462 -4.865 -15.181 -12.64 -10.353 c -10.857 6.731 -9.597 21.941 -3.002 31.114 c 4.7 6.539 12.135 11.375 20.964 11.578 c 38.744 0.849 49.614 -52.358 11.046 -66.663 c -60.461 -22.429 -113.678 49.219 -70.261 104.87 c 0 0 -21.562 -61.315 27.74 -76.687 c 6.029 -11.319 19.269 -16.525 27.735 -10.253 C 248.626 212.596 231.566 224.403 233.891 219.266 L 233.891 219.266 Z"/></g></svg></g><g transform="matrix(0.546, -0.2663, 0.2663, 0.546, 387.408, 118.724)"><svg viewBox="175.43 213.895 59.2222 121.35" width="59.2222" height="121.35"><defs><linearGradient id="linearGradientSk2znz9pw429" x1="0" y1="0.5" x2="1" y2="0.5"><stop stop-color="rgb(24, 119, 140)" offset="0%"/><stop stop-color="rgb(24, 119, 140)" offset="100%"/></linearGradient></defs><g><path clip-rule="evenodd" fill="url(#linearGradientSk2znz9pw429)" fill-rule="evenodd" d="M 206.337 218.897 c 0.238 0.296 -4.569 9.4 5.789 24.265 c -1.369 0.286 -34.794 39.203 17.526 87.083 c -43.644 -26.016 -52.44 -58.67 -48.306 -79.239 C 186.027 227.689 206.215 218.743 206.337 218.897 L 206.337 218.897 Z"/></g></svg></g><g transform="matrix(0.546, -0.2663, 0.2663, 0.546, 351.473, 98.4002)"><svg viewBox="136.952 157.773 108.979 133.324" width="108.979" height="133.324"><defs><linearGradient id="linearGradientSk2znz9pw42f" x1="0" y1="0.5" x2="1" y2="0.5"><stop stop-color="rgb(24, 119, 140)" offset="0%"/><stop stop-color="rgb(24, 119, 140)" offset="100%"/></linearGradient></defs><g><path clip-rule="evenodd" fill="url(#linearGradientSk2znz9pw42f)" fill-rule="evenodd" d="M 240.931 177.274 c 0 0 -16.123 -13.163 -34.274 -14.396 c -35.789 -2.45 -67.84 38.41 -64.459 74.24 c 2.039 21.604 16.483 42.23 28.05 48.979 c -23.55 -32.838 -9.683 -71.598 2.981 -85.588 C 196.788 174.477 220.392 173.924 240.931 177.274 L 240.931 177.274 Z"/></g></svg></g><g transform="matrix(0.546, -0.2663, 0.2663, 0.546, 335.432, 85.607)"><svg viewBox="122.381 127.382 133.713 144.117" width="133.713" height="144.117"><defs><linearGradient id="linearGradientSk2znz9pw42l" x1="0" y1="0.5" x2="1" y2="0.5"><stop stop-color="rgb(24, 119, 140)" offset="0%"/><stop stop-color="rgb(24, 119, 140)" offset="100%"/></linearGradient></defs><g><path clip-rule="evenodd" fill="url(#linearGradientSk2znz9pw42l)" fill-rule="evenodd" d="M 251.094 179.742 c 0 0 -10.627 -12.653 -5.954 -33.353 c 0 0 -44.012 -37.743 -91.734 10.681 c 0 0 -52.254 53.773 -8.676 109.429 c -16.042 -33.983 -6.373 -68.201 15.632 -90.083 C 183.065 153.841 222.441 146.36 251.094 179.742 L 251.094 179.742 Z"/></g></svg></g><g transform="matrix(0.546, -0.2663, 0.2663, 0.546, 321.143, 74.3267)"><svg viewBox="109.534 100.062 161.186 194.9" width="161.186" height="194.9"><defs><linearGradient id="linearGradientSk2znz9pw42r" x1="0" y1="0.5" x2="1" y2="0.5"><stop stop-color="rgb(24, 119, 140)" offset="0%"/><stop stop-color="rgb(24, 119, 140)" offset="100%"/></linearGradient></defs><g><path clip-rule="evenodd" fill="url(#linearGradientSk2znz9pw42r)" fill-rule="evenodd" d="M 247.168 140.088 c 0 0 7.006 -12.583 18.552 -13.55 C 217.683 54.378 43.259 178.08 146.84 289.962 c -40.578 -50.154 -31.576 -115.496 19.213 -151.08 C 187.645 123.752 220.885 119.757 247.168 140.088 L 247.168 140.088 Z"/></g></svg></g><g transform="matrix(0.546, -0.2663, 0.2663, 0.546, 306.036, 63.4459)"><svg viewBox="95.7167 73.8554 238.419 266.249" width="238.419" height="266.249"><defs><linearGradient id="linearGradientSk2znz9pw42x" x1="0" y1="0.5" x2="1" y2="0.5"><stop stop-color="rgb(24, 119, 140)" offset="0%"/><stop stop-color="rgb(24, 119, 140)" offset="100%"/></linearGradient></defs><g><path clip-rule="evenodd" fill="url(#linearGradientSk2znz9pw42x)" fill-rule="evenodd" d="M 272.138 125.153 c 0.563 0.974 1.777 1.332 3.117 1.975 c 12.794 6.109 14.81 17.703 5.725 27.188 c 9.947 -30.745 -38.493 -29.558 -31.122 6.531 c 4.794 23.433 28.069 32.203 51.096 23.828 c 45.635 -16.729 29.235 -67.208 -2.554 -89.002 c -19.112 -13.113 -66.023 -33.999 -135.504 8.705 c 0 0 -72.479 40.893 -60.933 125.242 c 6.051 44.183 45.496 84.932 82.204 105.484 c 0 0 -98.156 -69.644 -71.264 -148.168 c 10.131 -30.951 39.296 -65.665 74.101 -79.944 C 216.869 94.739 253.907 93.613 272.138 125.153 L 272.138 125.153 Z"/></g></svg></g><g transform="matrix(0.546, -0.2663, 0.2663, 0.546, 284.882, 45.7123)"><svg viewBox="77.3253 31.4582 91.0758 299.648" width="91.0758" height="299.648"><defs><linearGradient id="linearGradientSk2znz9pw433" x1="0" y1="0.5" x2="1" y2="0.5"><stop stop-color="rgb(24, 119, 140)" offset="0%"/><stop stop-color="rgb(24, 119, 140)" offset="100%"/></linearGradient></defs><g><path clip-rule="evenodd" fill="url(#linearGradientSk2znz9pw433)" fill-rule="evenodd" d="M 159.854 96.941 c -79.42 59.913 -91.876 154.416 -2.818 229.165 c -87.478 -31.522 -95.706 -157.725 -37.383 -226.451 c 0 0 34.795 -13.029 9.926 -30.852 c 0 0 10.542 11.909 -0.71 20.628 c -8.468 6.571 -21.437 6.205 -29.584 -1.263 c -22.039 -20.19 2.29 -52.318 29 -51.701 c 12.024 0.28 25.798 9.6 31.309 20.999 C 167.882 74.615 160.091 96.759 159.854 96.941 L 159.854 96.941 Z"/></g></svg></g><g transform="matrix(0.546, -0.2663, 0.2663, 0.546, 285.718, 84.8458)"><svg viewBox="50.0021 90.427 213.308 278.375" width="213.308" height="278.375"><defs><linearGradient id="linearGradientSk2znz9pw439" x1="0" y1="0.5" x2="1" y2="0.5"><stop stop-color="rgb(24, 119, 140)" offset="0%"/><stop stop-color="rgb(24, 119, 140)" offset="100%"/></linearGradient></defs><g><path clip-rule="evenodd" fill="url(#linearGradientSk2znz9pw439)" fill-rule="evenodd" d="M 258.257 362.005 c -3.787 -4.193 -111.996 -11.119 -154.711 -69.564 c -33.689 -46.094 -40.175 -121.68 8.807 -192.714 c -3.961 1.681 -13.043 -3.753 -12.352 -4.3 c -38.066 34.517 -49.547 90.518 -43.462 139.876 C 73.74 374.957 261.933 366.086 258.257 362.005 L 258.257 362.005 Z"/></g></svg></g><g transform="matrix(0.546, -0.2663, 0.2663, 0.546, 295.647, 69.8641)"><svg viewBox="74.771 75.2801 26.9478 40.6369" width="26.9478" height="40.6369"><defs><linearGradient id="linearGradientSk2znz9pw43f" x1="0" y1="0.5" x2="1" y2="0.5"><stop stop-color="rgb(24, 119, 140)" offset="0%"/><stop stop-color="rgb(24, 119, 140)" offset="100%"/></linearGradient></defs><g><path clip-rule="evenodd" fill="url(#linearGradientSk2znz9pw43f)" fill-rule="evenodd" d="M 88.285 80.281 c 0 0 1.123 6.792 8.353 12.136 c 0.998 0.122 -7.401 6.042 -16.867 18.5 C 83.754 97.824 86.988 80.135 88.285 80.281 L 88.285 80.281 Z"/></g></svg></g><g transform="matrix(0.546, -0.2663, 0.2663, 0.546, 235.788, 51.0695)"><svg viewBox="0.0405902 4.90906 94.3151 242.006" width="94.3151" height="242.006"><defs><linearGradient id="linearGradientSk2znz9pw43l" x1="0" y1="0.5" x2="1" y2="0.5"><stop stop-color="rgb(24, 119, 140)" offset="0%"/><stop stop-color="rgb(24, 119, 140)" offset="100%"/></linearGradient></defs><g><path clip-rule="evenodd" fill="url(#linearGradientSk2znz9pw43l)" fill-rule="evenodd" d="M 28.465 45.735 c 2.41 -23.03 26.542 -24.095 39.644 -8.73 c 10.854 12.709 13.251 36.793 -2.319 68.285 c -19.045 38.549 -37.132 103.363 -16.926 136.625 c 0 0 -6.152 -68.707 21.094 -124.396 C 81.573 92.19 99.06 51.968 82.681 27.424 C 67.372 4.483 38.174 5.652 19.797 21.822 C 5.299 34.577 -3.585 68.048 17.787 76.721 c 28.269 11.468 39.361 -22.186 21.063 -30.556 C 36.191 44.94 32.605 45.082 28.465 45.735 L 28.465 45.735 Z"/></g></svg></g><g transform="matrix(0.546, -0.2663, 0.2663, 0.546, 256.243, 56.9772)"><svg viewBox="26.3367 28.1455 50.7494 175.42" width="50.7494" height="175.42"><defs><linearGradient id="linearGradientSk2znz9pw43r" x1="0" y1="0.5" x2="1" y2="0.5"><stop stop-color="rgb(24, 119, 140)" offset="0%"/><stop stop-color="rgb(24, 119, 140)" offset="100%"/></linearGradient></defs><g><path clip-rule="evenodd" fill="url(#linearGradientSk2znz9pw43r)" fill-rule="evenodd" d="M 35.305 40.36 c -0.63 0.198 15.896 -16.835 29.769 0.766 c 15.629 19.883 2.143 47.786 -11.394 78.729 c -9.789 22.392 -17.628 49.673 -18.068 78.71 c 0 0 -11.874 -80.091 3.955 -115.776 C 67.628 62.125 44.743 37.441 35.305 40.36 L 35.305 40.36 Z"/></g></svg></g><g transform="matrix(0.546, -0.2663, 0.2663, 0.546, 257.545, 90.138)"><svg viewBox="4.53507 77.9171 48.0369 191.757" width="48.0369" height="191.757"><defs><linearGradient id="linearGradientSk2znz9pw43x" x1="0" y1="0.5" x2="1" y2="0.5"><stop stop-color="rgb(24, 119, 140)" offset="0%"/><stop stop-color="rgb(24, 119, 140)" offset="100%"/></linearGradient></defs><g><path clip-rule="evenodd" fill="url(#linearGradientSk2znz9pw43x)" fill-rule="evenodd" d="M 16.314 82.926 c 0 0 -7.564 25.757 -6.712 63.944 c 0.822 37.004 9.6 85.948 37.97 117.804 C 27.563 211.673 16.901 139.258 33.312 85.411 C 23.765 87.912 16.007 82.673 16.314 82.926 L 16.314 82.926 Z"/></g></svg></g><g transform="matrix(0.546, -0.2663, 0.2663, 0.546, 418.526, 200.541)"><svg viewBox="162.769 357.623 249.601 66.7032" width="249.601" height="66.7032"><defs><linearGradient id="linearGradientSk2znz9pw443" x1="0" y1="0.5" x2="1" y2="0.5"><stop stop-color="rgb(24, 119, 140)" offset="0%"/><stop stop-color="rgb(24, 119, 140)" offset="100%"/></linearGradient></defs><g><path clip-rule="evenodd" fill="url(#linearGradientSk2znz9pw443)" fill-rule="evenodd" d="M 407.367 419.319 c -46.398 -73.416 -170.682 -38.541 -226.646 -56.23 c -12.861 -3.107 -20.887 10.077 -0.694 17.403 c 6.181 2.239 38.339 6.611 84.649 1.532 C 363.227 371.205 407.805 420.018 407.367 419.319 L 407.367 419.319 Z"/></g></svg></g><g transform="matrix(0.546, -0.2663, 0.2663, 0.546, 415.395, 214.91)"><svg viewBox="147.558 376.508 113.308 34.5614" width="113.308" height="34.5614"><defs><linearGradient id="linearGradientSk2znz9pw449" x1="0" y1="0.5" x2="1" y2="0.5"><stop stop-color="rgb(24, 119, 140)" offset="0%"/><stop stop-color="rgb(24, 119, 140)" offset="100%"/></linearGradient></defs><g><path clip-rule="evenodd" fill="url(#linearGradientSk2znz9pw449)" fill-rule="evenodd" d="M 255.866 387.335 c 0 0 -54.642 8.735 -76.831 -1.447 c -6.869 -3.157 -12.597 -5.156 -17.831 -4.091 c -10.486 2.127 -11.046 11.231 -3.774 16.905 C 181.229 417.267 234.489 395.924 255.866 387.335 L 255.866 387.335 Z"/></g></svg></g><g transform="matrix(0.546, -0.2663, 0.2663, 0.546, 485.659, 198.215)"><svg viewBox="263.486 402.385 131.841 70.2708" width="131.841" height="70.2708"><defs><linearGradient id="linearGradientSk2znz9pw44f" x1="0" y1="0.5" x2="1" y2="0.5"><stop stop-color="rgb(24, 119, 140)" offset="0%"/><stop stop-color="rgb(24, 119, 140)" offset="100%"/></linearGradient></defs><g><path clip-rule="evenodd" fill="url(#linearGradientSk2znz9pw44f)" fill-rule="evenodd" d="M 390.327 424.828 c 0 0 -63.154 -33.585 -105.449 -7.551 c -15.87 9.782 -24.813 30.748 -5.09 45.518 c 0 0 20.649 14.487 39.972 -6.56 c 11.556 -16.395 -8.957 -29.828 -22.352 -17.351 c -3.613 3.363 -6.087 8.183 -1.492 13.977 c -24.249 -14.428 -5.594 -31.365 19.955 -34.418 C 342.415 415.27 379.315 420.504 390.327 424.828 L 390.327 424.828 Z"/></g></svg></g><g transform="matrix(0.546, -0.2663, 0.2663, 0.546, 506.042, 197.736)"><svg viewBox="294.488 416.486 66.3758 22.0395" width="66.3758" height="22.0395"><defs><linearGradient id="linearGradientSk2znz9pw44l" x1="0" y1="0.5" x2="1" y2="0.5"><stop stop-color="rgb(24, 119, 140)" offset="0%"/><stop stop-color="rgb(24, 119, 140)" offset="100%"/></linearGradient></defs><g><path clip-rule="evenodd" fill="url(#linearGradientSk2znz9pw44l)" fill-rule="evenodd" d="M 299.489 432.172 c 0 0 12.947 -6.13 21.786 1.353 c 0 0 14.988 -9.824 34.589 -7.569 C 346.29 418.345 299.262 420.475 299.489 432.172 L 299.489 432.172 Z"/></g></svg></g><g transform="matrix(0.6425, 0, 0, 0.6425, 410.117, 356.669)"><svg style="overflow: visible;" width="417" height="207"><defs><linearGradient id="linearGradientSk2znz9pw44t" x1="0" y1="0.5" x2="1" y2="0.5"><stop stop-color="rgb(41, 48, 54)" offset="0%"/><stop stop-color="rgb(41, 48, 54)" offset="100%"/></linearGradient></defs><g><path fill="url(#linearGradientSk2znz9pw44t)" transform="translate(208.5 110.25)" d="M -124.45 -72 L -106.45 -72 L -119.05 0 L -137.15 0 L -149.75 -39.4 L -156.55 0 L -174.65 0 L -161.95 -72 L -143.35 -72 L -130.95 -35.2 L -124.45 -72 Z M -26.35 0 L -45.35 0 L -44.75 -15.7 L -61.45 -15.7 L -66.35 0 L -85.45 0 L -59.75 -72 L -26.75 -72 L -26.35 0 Z M -43.15 -54.5 L -49.45 -54.5 L -57.35 -29.1 L -44.25 -29.1 L -43.15 -54.5 Z M 19.85 -72 L 38.65 -72 L 49.35 -37.5 L 72.35 -72 L 91.25 -72 L 78.55 0 L 60.45 0 L 67.65 -40.6 L 52.25 -16.4 L 39.15 -16.4 L 32.35 -40.6 L 25.15 0 L 7.15 0 L 19.85 -72 Z M 169.75 -15.6 L 166.95 0 L 116.75 0 L 129.45 -72 L 179.65 -72 L 176.85 -56.4 L 144.65 -56.4 L 142.35 -42.9 L 168.95 -42.9 L 166.15 -27.3 L 139.55 -27.3 L 137.55 -15.6 L 169.75 -15.6 Z" data-textpath="N A M E" data-text-anchor="middle" data-font-size="100" data-letterspacing="0" data-side="left" data-offset="0" data-dx="0" data-dy="110.25" data-xmlspace="preserve" data-href="" data-font="Fugaz One" data-font-src="/Content/clientfonts/fugazone.woff" data-font-scale="contain" data-x="208.5" data-y="0"/></g></svg></g><g transform="matrix(1.5008, 0, 0, 1.5008, 135.851, 186.736)"><svg style="overflow: visible;" width="621.714" height="207"><defs><linearGradient id="linearGradientSk2znz9pw450" x1="0" y1="0.5" x2="1" y2="0.5"><stop stop-color="rgb(24, 119, 140)" offset="0%"/><stop stop-color="rgb(24, 119, 140)" offset="100%"/></linearGradient></defs><g><path fill="url(#linearGradientSk2znz9pw450)" transform="translate(272 110.25)" d="M -177.75 -72 L -159.75 -72 L -172.35 0 L -190.45 0 L -185.85 -26 L -205.35 -26 L -209.85 0 L -227.95 0 L -215.25 -72 L -197.25 -72 L -202.65 -41.6 L -183.15 -41.6 L -177.75 -72 Z M -136.85 -12.8 L -136.85 -12.8 Q -134.55 -12.8 -132.75 -13.8 L -132.75 -13.8 L -133.25 -2.5 Q -137.95 1.4 -143.95 1.4 L -143.95 1.4 Q -153.05 1.4 -155.75 -2.8 L -155.75 -2.8 Q -157.55 -5.6 -157.55 -8.75 Q -157.55 -11.9 -157.15 -14.3 L -157.15 -14.3 L -151.15 -48.1 L -134.15 -48.1 L -139.75 -16.6 Q -139.85 -16 -139.85 -15.5 L -139.85 -15.5 Q -139.85 -12.8 -136.85 -12.8 Z M -149.15 -64.4 L -149.15 -64.4 Q -149.15 -70.8 -146.3 -73.75 Q -143.45 -76.7 -137.45 -76.7 L -137.45 -76.7 Q -129.05 -76.7 -129.05 -69.3 L -129.05 -69.3 Q -129.05 -63 -131.9 -60.1 Q -134.75 -57.2 -140.85 -57.2 L -140.85 -57.2 Q -149.15 -57.2 -149.15 -64.4 Z M -94.45 -30.7 L -94.45 -30.7 Q -94.45 -35 -98.6 -35 Q -102.75 -35 -105.45 -31.9 L -105.45 -31.9 L -111.05 0 L -128.05 0 L -119.55 -48.1 L -103.75 -48.1 L -104.85 -42.2 Q -98.95 -49.5 -89.95 -49.5 Q -80.95 -49.5 -78.25 -45.1 L -78.25 -45.1 Q -76.55 -42.3 -76.55 -38.7 Q -76.55 -35.1 -77.05 -32 L -77.05 -32 L -79.75 -16.6 Q -79.85 -16 -79.85 -15.5 L -79.85 -15.5 Q -79.85 -12.8 -76.85 -12.8 L -76.85 -12.8 Q -74.55 -12.8 -72.75 -13.8 L -72.75 -13.8 L -73.25 -2.5 Q -77.95 1.4 -83.95 1.4 L -83.95 1.4 Q -97.55 1.4 -97.55 -10 L -97.55 -10 Q -97.55 -12 -97.15 -14.3 L -97.15 -14.3 L -94.75 -27.6 Q -94.45 -29.4 -94.45 -30.7 Z M -45.45 1.4 L -45.45 1.4 Q -57.05 1.4 -62.15 -3.8 L -62.15 -3.8 Q -65.95 -7.6 -65.95 -14 L -65.95 -14 Q -65.95 -16.1 -65.55 -18.5 L -65.55 -18.5 L -58.75 -57.2 L -40.45 -64.8 L -43.35 -48.1 L -15.75 -48.1 L -18.25 -34 L -45.85 -34 L -47.85 -22.7 Q -48.25 -20.8 -48.25 -19.3 L -48.25 -19.3 Q -48.25 -13 -42.25 -13 L -42.25 -13 Q -39.05 -13 -36.9 -15.7 Q -34.75 -18.4 -33.95 -22.9 L -33.95 -22.9 L -17.35 -22.9 Q -21.55 1.4 -45.45 1.4 Z M 39.95 -12.8 L 39.95 -12.8 Q 42.25 -12.8 44.05 -13.8 L 44.05 -13.8 L 43.55 -2.5 Q 38.85 1.4 32.85 1.4 L 32.85 1.4 Q 19.25 1.4 19.25 -10 L 19.25 -10 Q 19.25 -12 19.65 -14.3 L 19.65 -14.3 L 21.85 -26.6 Q 22.15 -28.4 22.15 -30.2 L 22.15 -30.2 Q 22.15 -35 17.1 -35 Q 12.05 -35 9.25 -31.6 L 9.25 -31.6 L 3.65 0 L -13.35 0 L 0.05 -75.9 L 17.05 -75.9 L 11.35 -43.6 Q 16.85 -49.5 25.15 -49.5 L 25.15 -49.5 Q 35.25 -49.5 38.25 -45 L 38.25 -45 Q 40.35 -42 40.35 -38.3 Q 40.35 -34.6 39.75 -31.5 L 39.75 -31.5 L 37.05 -16.6 Q 36.95 -16 36.95 -15.5 L 36.95 -15.5 Q 36.95 -12.8 39.95 -12.8 Z M 96.85 -15.4 L 96.85 -15.4 Q 96.85 -12.8 99.5 -12.8 Q 102.15 -12.8 103.95 -13.8 L 103.95 -13.8 L 103.45 -2.5 Q 98.65 1.4 92.65 1.4 L 92.65 1.4 Q 81.65 1.4 80.45 -6.6 L 80.45 -6.6 Q 75.45 1.4 65.75 1.4 L 65.75 1.4 Q 49.35 1.4 49.35 -12.7 L 49.35 -12.7 Q 49.35 -15.1 49.85 -18 L 49.85 -18 L 51.95 -29.7 Q 53.55 -38.7 59.3 -44.05 Q 65.05 -49.4 74.3 -49.4 Q 83.55 -49.4 86.85 -45.1 L 86.85 -45.1 L 87.35 -48.1 L 102.55 -48.1 L 96.95 -16.6 Q 96.85 -16 96.85 -15.4 Z M 68.55 -27.7 L 67.25 -20.2 Q 67.05 -19.3 67.05 -17.7 Q 67.05 -16.1 68.55 -14.55 Q 70.05 -13 73.6 -13 Q 77.15 -13 79.75 -15.8 L 79.75 -15.8 L 82.75 -32.6 Q 81.65 -35.1 77.55 -35.1 L 77.55 -35.1 Q 69.85 -35.1 68.55 -27.7 L 68.55 -27.7 Z M 157.05 -15.4 L 157.05 -15.4 Q 157.05 -12.8 159.7 -12.8 Q 162.35 -12.8 164.15 -13.8 L 164.15 -13.8 L 163.65 -2.5 Q 158.85 1.4 152.85 1.4 L 152.85 1.4 Q 141.85 1.4 140.65 -6.6 L 140.65 -6.6 Q 135.65 1.4 125.95 1.4 L 125.95 1.4 Q 109.55 1.4 109.55 -12.7 L 109.55 -12.7 Q 109.55 -15.1 110.05 -18 L 110.05 -18 L 112.15 -29.7 Q 113.75 -38.7 119.5 -44.05 Q 125.25 -49.4 135.45 -49.4 L 135.45 -49.4 Q 141.75 -49.4 145.45 -46.7 L 145.45 -46.7 L 150.55 -75.9 L 167.65 -75.9 L 157.15 -16.6 Q 157.05 -16 157.05 -15.4 Z M 128.75 -27.7 L 127.45 -20.2 Q 127.25 -19.3 127.25 -17.7 Q 127.25 -16.1 128.75 -14.55 Q 130.25 -13 133.8 -13 Q 137.35 -13 139.95 -15.8 L 139.95 -15.8 L 142.95 -32.6 Q 141.85 -35.1 137.75 -35.1 L 137.75 -35.1 Q 130.05 -35.1 128.75 -27.7 L 128.75 -27.7 Z M 218.75 -15.4 L 218.75 -15.4 Q 218.75 -12.8 221.4 -12.8 Q 224.05 -12.8 225.85 -13.8 L 225.85 -13.8 L 225.35 -2.5 Q 220.55 1.4 214.55 1.4 L 214.55 1.4 Q 203.55 1.4 202.35 -6.6 L 202.35 -6.6 Q 197.35 1.4 187.65 1.4 L 187.65 1.4 Q 171.25 1.4 171.25 -12.7 L 171.25 -12.7 Q 171.25 -15.1 171.75 -18 L 171.75 -18 L 173.85 -29.7 Q 175.45 -38.7 181.2 -44.05 Q 186.95 -49.4 196.2 -49.4 Q 205.45 -49.4 208.75 -45.1 L 208.75 -45.1 L 209.25 -48.1 L 224.45 -48.1 L 218.85 -16.6 Q 218.75 -16 218.75 -15.4 Z M 190.45 -27.7 L 189.15 -20.2 Q 188.95 -19.3 188.95 -17.7 Q 188.95 -16.1 190.45 -14.55 Q 191.95 -13 195.5 -13 Q 199.05 -13 201.65 -15.8 L 201.65 -15.8 L 204.65 -32.6 Q 203.55 -35.1 199.45 -35.1 L 199.45 -35.1 Q 191.75 -35.1 190.45 -27.7 L 190.45 -27.7 Z" data-textpath="Hinthada" data-text-anchor="middle" data-font-size="100" data-letterspacing="0" data-side="left" data-offset="0" data-dx="0" data-dy="110.25" data-xmlspace="preserve" data-href="" data-font="Fugaz One" data-font-src="/Content/clientfonts/fugazone.woff" data-font-scale="contain" data-x="272" data-y="0"/></g></svg></g></g></svg>